<?xml version="1.0" standalone="no"?>
<!DOCTYPE svg PUBLIC "-//W3C//DTD SVG 20010904//EN"
 "http://www.w3.org/TR/2001/REC-SVG-20010904/DTD/svg10.dtd">
<svg version="1.0" xmlns="http://www.w3.org/2000/svg"
 width="60.000000pt" height="60.000000pt" viewBox="0 0 60.000000 60.000000"
 preserveAspectRatio="xMidYMid meet">

<g transform="translate(0.000000,60.000000) scale(0.100000,-0.100000)"
fill="#000000" stroke="none">
<path d="M256 513 c-4 -5 -58 -10 -119 -13 l-112 -5 -13 -149 c-12 -143 -12
-150 6 -169 16 -15 23 -17 41 -8 11 6 24 23 27 36 5 22 9 23 28 13 11 -7 31
-11 44 -9 24 3 27 -5 12 -29 -6 -10 -4 -22 6 -37 14 -22 13 -23 -15 -23 -15 0
-34 -7 -41 -15 -7 -8 -16 -12 -21 -9 -5 3 -9 0 -9 -5 0 -16 16 -13 30 4 8 10
34 16 79 17 36 0 51 3 34 5 -39 5 -57 32 -48 74 5 22 3 29 -9 29 -19 0 -19 7
-5 65 7 29 17 45 31 48 20 6 20 6 -1 33 -11 15 -21 40 -21 55 0 26 3 29 35 29
20 0 53 9 74 19 l37 20 0 -22 c-1 -14 7 -23 24 -28 21 -6 21 -7 5 -8 -34 -2
-92 -58 -111 -106 -20 -53 -15 -122 12 -162 10 -16 18 -31 17 -34 -2 -7 128
-32 134 -25 3 2 -16 8 -42 11 -58 9 -101 45 -115 95 -25 92 49 210 132 210 57
0 132 -23 157 -48 24 -24 24 -26 6 -32 -12 -4 -25 -1 -33 7 -34 34 -105 19
-136 -30 -53 -83 -1 -193 81 -172 27 6 93 65 93 82 0 6 5 15 11 19 20 12 0
-48 -28 -85 -14 -18 -40 -39 -57 -47 -17 -7 -24 -13 -15 -14 8 0 24 7 35 15
10 8 29 15 41 15 15 0 24 7 27 23 10 49 19 104 21 137 1 19 6 63 10 97 l7 62
-74 21 c-40 11 -93 27 -118 35 -47 16 -141 20 -154 8z m69 -12 c-11 -4 -38
-15 -60 -25 -31 -14 -53 -17 -98 -12 -85 9 -107 25 -35 26 33 0 58 -5 60 -11
3 -8 17 -5 43 9 22 12 56 21 75 21 26 -1 30 -3 15 -8z m208 -58 c50 8 60 -3
52 -52 l-7 -41 -27 29 c-16 17 -39 32 -52 35 -13 4 -42 10 -64 15 -22 5 -32 9
-22 10 11 1 17 9 16 24 -1 17 -2 18 -6 4 -4 -14 -13 -17 -46 -15 -56 4 -54 22
3 28 36 4 52 0 82 -19 28 -17 47 -22 71 -18z m-415 14 c35 -9 42 -14 40 -31
-2 -15 -11 -22 -33 -24 -28 -3 -30 -6 -31 -47 -1 -40 1 -45 21 -45 25 0 35
-17 35 -61 0 -32 -19 -39 -40 -14 -19 23 -29 18 -38 -17 -8 -33 -36 -48 -53
-31 -6 6 -5 65 3 152 11 137 13 142 32 136 12 -4 40 -12 64 -18z m421 -3 c14
-12 -39 -1 -55 11 -17 13 -16 14 16 3 19 -6 37 -13 39 -14z m-352 -90 c12 -10
10 -16 -11 -38 -14 -16 -27 -23 -31 -16 -3 5 -15 10 -26 10 -20 0 -26 15 -9
25 6 4 8 16 4 27 -5 16 -3 20 8 15 8 -3 21 -1 29 4 9 5 15 4 18 -4 2 -7 10
-17 18 -23z m284 -54 c4 -20 3 -40 -3 -47 -6 -7 -7 -20 -4 -29 4 -10 -1 -25
-10 -35 -11 -12 -13 -19 -5 -19 6 0 17 12 23 26 8 17 18 24 30 21 10 -3 18 -1
18 4 0 5 -11 9 -25 9 -25 0 -33 14 -15 25 6 3 7 17 4 30 -5 20 -3 23 15 18 12
-3 28 0 36 7 13 10 15 9 15 -9 0 -12 7 -24 15 -27 20 -8 19 -24 0 -24 -9 0
-19 -8 -22 -17 -4 -10 -22 -32 -40 -50 -24 -25 -41 -33 -67 -33 -44 0 -66 29
-66 88 0 35 6 49 30 74 38 37 62 34 71 -12z m39 18 c0 -13 -23 -5 -28 10 -2 7
2 10 12 6 9 -3 16 -11 16 -16z m57 -20 c-3 -8 -6 -5 -6 6 -1 11 2 17 5 13 3
-3 4 -12 1 -19z"/>
<path d="M366 373 c-15 -15 -34 -43 -42 -61 -19 -46 -18 -123 2 -148 15 -19
15 -19 10 1 -3 11 -8 32 -11 46 -10 39 12 105 47 144 37 43 32 57 -6 18z"/>
</g>
</svg>
